<svg xmlns="http://www.w3.org/2000/svg" width="617.508" height="484.068" viewBox="0 0 617.508 484.068">
  <path id="Icon_awesome-car-alt" data-name="Icon awesome-car-alt" d="M522.561,168.673l-13.39-31.1L485.429,82.419C465.046,35.081,416.431,4.5,361.549,4.5H210.258c-54.87,0-103.5,30.581-123.88,77.919L62.637,137.572l-13.39,31.1C20.514,178.823,0,204.456,0,234.717v53.127c0,17.842,7.338,33.946,19.06,46.409V394.1c0,19.557,17.071,35.418,38.121,35.418H95.3c21.05,0,38.121-15.861,38.121-35.418V358.679H438.386V394.1c0,19.557,17.071,35.418,38.121,35.418h38.12c21.05,0,38.121-15.861,38.121-35.418V334.252c11.722-12.452,19.06-28.556,19.06-46.409V234.717C571.808,204.456,551.294,178.823,522.561,168.673Zm-365.4-59.945c8.684-20.166,29.71-33.392,53.095-33.392H361.549c23.385,0,44.41,13.226,53.095,33.392l23.742,55.152H133.422l23.742-55.152ZM95.3,287.622c-22.872,0-38.121-14.123-38.121-35.307S72.429,217.008,95.3,217.008s57.181,31.777,57.181,52.961S118.174,287.622,95.3,287.622Zm381.205,0c-22.872,0-57.181,3.531-57.181-17.654s34.308-52.961,57.181-52.961,38.12,14.123,38.12,35.307-15.248,35.307-38.12,35.307Z" transform="matrix(0.996, -0.087, 0.087, 0.996, 5.025, 50.77)" fill="none" stroke="#ff6978" stroke-width="10"/>
</svg>
