<svg xmlns="http://www.w3.org/2000/svg" width="760.526" height="508.061" viewBox="0 0 760.526 508.061">
  <path id="Icon_awesome-motorcycle" data-name="Icon awesome-motorcycle" d="M568.081,283.531a140.135,140.135,0,0,1-46.959-7.642l-36.437,60.8h91.259a26.517,26.517,0,0,1,26.58,26.58v35.441a26.517,26.517,0,0,1-26.58,26.58h-50.17a26.584,26.584,0,0,1-19.714-8.749l-41.532-46.183-25.251,42.086a26.762,26.762,0,0,1-22.815,12.847h-88.6a17.772,17.772,0,0,1-17.72-17.72v-17.72a17.772,17.772,0,0,1,17.72-17.72H401.4l21.264-35.441H252.439c-19.6,25.584-49.727,44.3-110.641,44.3H80.331c-14.951,0-27.466-12.183-27.134-27.134a26.546,26.546,0,0,1,26.58-26.027H141.8c27.134,0,42.861-12.072,52.939-27.466l-12.515-22.7a141.8,141.8,0,0,1-45.74,5.759C61.946,280.762,1.808,219.738.036,145.092A141.8,141.8,0,0,1,141.8.007c66.008,0,121.495,45.187,137.332,106.322h93.253a26.6,26.6,0,0,1,26.58,27.8,167.763,167.763,0,0,0,62.242,138.44L475.05,249.53a141.579,141.579,0,0,1-49.617-108.758C425.987,63.689,488.783.671,565.866.007a141.748,141.748,0,0,1,143.091,142.98c-.775,77.083-63.793,139.99-140.876,140.544ZM141.8,53.168a88.6,88.6,0,0,0,0,177.2,82.4,82.4,0,0,0,13.844-1.108L109.68,145.756a26.612,26.612,0,0,1,23.258-39.428h90.041A88.841,88.841,0,0,0,141.8,53.168ZM655.575,136.9c-2.437-44.965-38.763-81.292-83.617-83.618a88.538,88.538,0,0,0-69,149.515l54.711-91.259a17.793,17.793,0,0,1,24.365-6.091l15.173,9.082A17.793,17.793,0,0,1,603.3,138.89l-53.825,89.6a84.824,84.824,0,0,0,17.61,1.772c50.5.111,91.149-42.307,88.491-93.364Z" transform="matrix(-0.995, -0.105, 0.105, -0.995, 710.574, 502.566)" fill="none" stroke="#ff6978" stroke-width="10"/>
</svg>
