<svg xmlns="http://www.w3.org/2000/svg" width="639.66" height="467.136" viewBox="0 0 639.66 467.136">
  <path id="Icon_awesome-truck-moving" data-name="Icon awesome-truck-moving" d="M589.963,197.195l-55.549-55.549A60.793,60.793,0,0,0,491.4,123.889H455.79V32.636A30.353,30.353,0,0,0,425.4,2.25H30.386A30.353,30.353,0,0,0,0,32.636V351.689a75.777,75.777,0,0,0,136.737,45.2,75.777,75.777,0,0,0,136.737-45.2,80.031,80.031,0,0,0-1.519-15.193H426.923a72.982,72.982,0,0,0-1.519,15.193,75.965,75.965,0,0,0,151.93,0,80.026,80.026,0,0,0-1.519-15.193h16.712A15.238,15.238,0,0,0,607.719,321.3V240.115A60.572,60.572,0,0,0,589.963,197.195Zm-514,184.88a30.386,30.386,0,1,1,30.386-30.386A30.475,30.475,0,0,1,75.965,382.075Zm121.544,0a30.386,30.386,0,1,1,30.386-30.386A30.475,30.475,0,0,1,197.509,382.075Zm258.281-212.7H491.4a15.084,15.084,0,0,1,10.73,4.463l41.116,41.116H455.79Zm45.579,212.7a30.386,30.386,0,1,1,30.386-30.386A30.475,30.475,0,0,1,501.369,382.075Z" transform="translate(5.137 34.813) rotate(-3)" fill="none" stroke="#ff6978" stroke-width="10"/>
</svg>
